<?xml version="1.0" encoding="utf-8"?>
<!-- Generator: Adobe Illustrator 24.3.0, SVG Export Plug-In . SVG Version: 6.00 Build 0)  -->
<svg version="1.1" id="Layer_1" xmlns="http://www.w3.org/2000/svg" xmlns:xlink="http://www.w3.org/1999/xlink" x="0px" y="0px"
	 viewBox="0 0 800 800" style="enable-background:new 0 0 800 800;" xml:space="preserve">
<style type="text/css">
	.st0{fill:#FFFFFF;}
</style>
<path class="st0" d="M400,0C179.1,0,0,179.1,0,400s179.1,400,400,400s400-179.1,400-400S620.9,0,400,0z M439.6,166.3
	c56.2,0,108.9,21.8,148.6,61.5c39.6,39.6,61.5,92.4,61.5,148.6c0,11.2-9.1,20.3-20.3,20.3c-11.2,0-20.3-9.1-20.3-20.3
	c0-93.4-76-169.4-169.4-169.4c-11.2,0-20.3-9.1-20.3-20.3C419.2,175.4,428.3,166.3,439.6,166.3z M439.6,261.2
	c26.1,0,54.6,14.5,78,39.8c22.5,24.1,37.1,53.7,37.1,75.3c0,11.2-9.1,20.3-20.3,20.3c-11.2,0-20.3-9.1-20.3-20.3
	c0-8.1-8.1-28.3-26.2-47.6c-15.6-16.8-33.7-26.9-48.3-26.9c-11.2,0-20.3-9.1-20.3-20.3C419.2,270.3,428.3,261.2,439.6,261.2z
	 M646.6,595.3c-5.1,10.8-11.4,20.3-19.4,29c-13.8,15.2-28.9,26-46.1,33.1c-16.8,7-34.9,10.5-53.9,10.5c-27.2,0-56.1-6.4-85.8-19.1
	c-29.1-12.4-58.2-29.1-86.6-49.8c-28.4-20.7-55.7-44-81.2-69.3l-0.1-0.1c-25.4-25.6-48.6-52.9-69.1-81l-0.1-0.1
	c-20.8-28.9-37.4-57.8-49.3-85.8c-12.5-29.7-18.8-58.6-18.8-86c0-18.8,3.3-36.7,9.9-53.2c6.8-17.3,17.6-33.1,32-46.7
	c18.8-18.4,39.9-27.7,62.7-27.7c9.5,0,18.9,2.1,27.2,6.1c9.5,4.4,17.4,11,23.3,19.5l55.8,78.7c5.1,7,8.9,13.7,11.6,20.5
	c3.2,7.5,4.8,14.8,4.8,21.7c0,9.1-2.5,17.9-7.5,26.3c-3.9,6.8-9.3,13.8-16.2,20.7l-16.6,17.3c0.2,0.5,0.4,1,0.6,1.6
	c2.9,5,8.6,13.5,19.7,26.7c11.8,13.7,23,25.8,34,37.1c14.7,14.5,26.2,25.1,37.3,34.5c13.1,11.1,21.9,16.8,27.2,19.6
	c0.5,0.2,1,0.4,1.4,0.6l16.7-16.5c7.4-7.4,14.3-12.7,21.2-16.4c8.4-5,16.9-7.4,26-7.4c7.1,0,14.2,1.5,21.6,4.5
	c6.3,2.6,12.9,6.3,20.2,11.2l0.3,0.2l79.7,56.6l0,0c9,6.2,15.5,14,19.5,23l0.2,0.6c3.5,8.7,5.2,17,5.2,25.5
	C654.3,572.9,651.7,584.4,646.6,595.3z"/>
</svg>
