<?xml version="1.0" encoding="utf-8"?>
<!-- Generator: Adobe Illustrator 24.3.0, SVG Export Plug-In . SVG Version: 6.00 Build 0)  -->
<svg version="1.1" id="Layer_1" xmlns="http://www.w3.org/2000/svg" xmlns:xlink="http://www.w3.org/1999/xlink" x="0px" y="0px"
	 viewBox="0 0 800 800" style="enable-background:new 0 0 800 800;" xml:space="preserve">
<style type="text/css">
	.st0{fill:#131C5C;}
</style>
<path class="st0" d="M710.4,321.7c-5-21.5-26.5-35-48-30s-35,26.5-30,48l0,0c15,60.2,6.4,123.9-24,178c-66,114-214,154-328,88
	c-114-64-154-212-88-326s214-154,328-88c18.8,11,43,4.8,54-14s4.8-43-14-54c-154-90-348-38-438,116
	C33.3,392.8,85.1,589.2,238.2,678.3s349.5,37.3,438.6-115.8C719.2,489.7,731.2,403.3,710.4,321.7L710.4,321.7z M272.4,365.7
	c-18.8-12.2-43.8-6.8-56,12s-6.8,43.8,12,56l0,0l160,100c6.6,4.1,14.2,6.2,22,6c12.5-0.3,24.3-6.1,32-16l210-270c14-18,10-42-8-56
	s-42-10-56,8l-188,240L272.4,365.7z"/>
</svg>
