<?xml version="1.0" encoding="utf-8"?>
<!-- Generator: Adobe Illustrator 24.3.0, SVG Export Plug-In . SVG Version: 6.00 Build 0)  -->
<svg version="1.1" id="Layer_1" xmlns="http://www.w3.org/2000/svg" xmlns:xlink="http://www.w3.org/1999/xlink" x="0px" y="0px"
	 viewBox="0 0 800 800" style="enable-background:new 0 0 800 800;" xml:space="preserve">
<style type="text/css">
	.st0{fill:#FFFFFF;}
</style>
<path class="st0" d="M400,0C179.1,0,0,179.1,0,400s179.1,400,400,400s400-179.1,400-400C800.2,179.3,621.4,0.2,400.7,0
	C400.4,0,400.2,0,400,0z M400,705.9C231.1,705.9,94.1,568.9,94.1,400S231.1,94.1,400,94.1S705.9,231.1,705.9,400
	c0.3,168.6-136.1,305.5-304.7,305.9C400.8,705.9,400.4,705.9,400,705.9z M517.6,275.3L381.2,440l-94.1-68.2
	c-21.2-16.5-49.4-11.8-65.9,9.4c-16.5,21.2-11.8,49.4,9.4,65.9c28.2,21.2,58.8,42.4,87.1,63.5c21.2,14.1,40,35.3,65.9,37.6
	c7.1,0,16.5,0,23.5-4.7l14.1-14.1l105.9-127.1c18.8-23.5,37.6-44.7,56.5-68.2c14.1-18.8,18.8-42.4,2.4-61.2l-7.1-7.1
	C562.4,254.1,534.1,256.5,517.6,275.3z"/>
</svg>
