<?xml version="1.0" encoding="utf-8"?>
<!-- Generator: Adobe Illustrator 24.3.0, SVG Export Plug-In . SVG Version: 6.00 Build 0)  -->
<svg version="1.1" id="Layer_1" xmlns="http://www.w3.org/2000/svg" xmlns:xlink="http://www.w3.org/1999/xlink" x="0px" y="0px"
	 viewBox="0 0 1000 1000" style="enable-background:new 0 0 1000 1000;" xml:space="preserve">
<style type="text/css">
	.st0{fill:#FFFFFF;}
</style>
<g>
	<path class="st0" d="M592.4,402.3h-23.5c-3.5,0-6.3,2.8-6.3,6.3v85.8l-66.1-89.3c-0.2-0.2-0.3-0.4-0.5-0.7c0,0,0,0,0,0
		c-0.1-0.1-0.2-0.3-0.4-0.4c0,0-0.1-0.1-0.1-0.1c-0.1-0.1-0.2-0.2-0.3-0.3c-0.1,0-0.1-0.1-0.2-0.1c-0.1-0.1-0.2-0.2-0.3-0.2
		c-0.1,0-0.1-0.1-0.2-0.1c-0.1-0.1-0.2-0.1-0.3-0.2c-0.1,0-0.1-0.1-0.2-0.1c-0.1-0.1-0.2-0.1-0.4-0.2c-0.1,0-0.1-0.1-0.2-0.1
		c-0.1,0-0.3-0.1-0.4-0.1c-0.1,0-0.1,0-0.2-0.1c-0.1,0-0.2-0.1-0.4-0.1c-0.1,0-0.2,0-0.3,0c-0.1,0-0.2,0-0.3,0c-0.1,0-0.2,0-0.3,0
		c-0.1,0-0.1,0-0.2,0h-23.4c-3.5,0-6.3,2.8-6.3,6.3v144.5c0,3.5,2.8,6.3,6.3,6.3h23.5c3.5,0,6.3-2.8,6.3-6.3v-85.8l66.2,89.4
		c0.5,0.6,1,1.2,1.6,1.6c0,0,0,0,0.1,0.1c0.1,0.1,0.3,0.2,0.4,0.2c0.1,0,0.1,0.1,0.2,0.1c0.1,0.1,0.2,0.1,0.3,0.1
		c0.1,0,0.2,0.1,0.3,0.1c0.1,0,0.1,0,0.2,0.1c0.1,0.1,0.3,0.1,0.4,0.1c0,0,0.1,0,0.1,0c0.5,0.1,1.1,0.2,1.7,0.2h23.4
		c3.5,0,6.3-2.8,6.3-6.3V408.6C598.7,405.1,595.9,402.3,592.4,402.3z"/>
	<path class="st0" d="M376.5,523.3h-63.2V408.6c0-3.5-2.8-6.3-6.3-6.3h-23.5c-3.5,0-6.3,2.8-6.3,6.3V553v0v0.1
		c0,3.5,2.8,6.3,6.3,6.3h0.1h92.9c3.5,0,6.3-2.8,6.3-6.3v-23.5C382.8,526.2,380,523.3,376.5,523.3z"/>
	<path class="st0" d="M432.5,402.3H409c-3.5,0-6.3,2.8-6.3,6.3v144.5c0,3.5,2.8,6.3,6.3,6.3h23.5c3.5,0,6.3-2.8,6.3-6.3V408.6
		C438.8,405.1,436,402.3,432.5,402.3z"/>
	<path class="st0" d="M500,6.7C226,6.7,3.9,228.8,3.9,502.8S226,998.9,500,998.9s496.1-222.1,496.1-496.1S774,6.7,500,6.7z
		 M759.9,639.2c-69.5,80-224.9,177.4-260.2,192.3c-35.3,14.9-30.1-9.5-28.7-17.9c0.8-5,4.7-28.4,4.7-28.4c1.1-8.5,2.3-21.6-1.1-29.9
		c-3.7-9.2-18.4-14-29.2-16.3c-159.2-21-277-132.3-277-265.2c0-148.2,148.6-268.8,331.2-268.8c182.6,0,331.2,120.6,331.2,268.8
		C830.8,533.2,807.8,586.6,759.9,639.2L759.9,639.2z"/>
	<path class="st0" d="M720.7,402.3h-92.9h-0.1c-3.5,0-6.3,2.8-6.3,6.3v0.1v0V553v0v0.1c0,3.5,2.8,6.3,6.3,6.3h0.1h92.9
		c3.5,0,6.3-2.8,6.3-6.3v-23.5c0-3.5-2.8-6.3-6.3-6.3h-63.2v-24.4h63.2c3.5,0,6.3-2.8,6.3-6.3v-23.5c0-3.5-2.8-6.3-6.3-6.3h-63.2
		v-24.4h63.2c3.5,0,6.3-2.8,6.3-6.3v-23.5C727,405.1,724.1,402.3,720.7,402.3z"/>
</g>
</svg>
